<svg id="Laag_2" data-name="Laag 2" xmlns="http://www.w3.org/2000/svg" width="171.483" height="12.984" viewBox="0 0 171.483 12.984">
  <g id="Group_990" data-name="Group 990">
    <g id="Group_986" data-name="Group 986">
      <g id="Group_985" data-name="Group 985">
        <g id="Group_984" data-name="Group 984">
          <path id="Path_1178" data-name="Path 1178" d="M401.161,315.748a1.082,1.082,0,0,1,1.012,1.141v2.858h10.6c0-7.174-5.143-12.984-11.477-12.984s-11.474,5.811-11.474,12.984h10.327V316.89A1.079,1.079,0,0,1,401.161,315.748Z" transform="translate(-389.825 -306.763)" fill="#e45d71"/>
        </g>
      </g>
    </g>
    <g id="Group_989" data-name="Group 989" transform="translate(148.532)">
      <g id="Group_988" data-name="Group 988">
        <g id="Group_987" data-name="Group 987">
          <path id="Path_1179" data-name="Path 1179" d="M449.449,315.748a1.084,1.084,0,0,1,1.012,1.141v2.858h10.6c0-7.174-5.14-12.984-11.474-12.984s-11.477,5.811-11.477,12.984h10.327V316.89A1.082,1.082,0,0,1,449.449,315.748Z" transform="translate(-438.11 -306.763)" fill="#ff8b90"/>
        </g>
      </g>
    </g>
  </g>
</svg>
