<svg id="Group_101" data-name="Group 101" xmlns="http://www.w3.org/2000/svg" width="45.244" height="45.244" viewBox="0 0 45.244 45.244">
  <path id="Path_144" data-name="Path 144" d="M232.439,141.835a4.1,4.1,0,0,0-2.354-2.354,6.865,6.865,0,0,0-2.3-.428c-1.308-.059-1.7-.073-5.013-.073s-3.7.013-5.012.073a6.865,6.865,0,0,0-2.3.428,4.106,4.106,0,0,0-2.355,2.354,6.849,6.849,0,0,0-.427,2.3c-.059,1.309-.072,1.7-.072,5.013s.013,3.7.072,5.012a6.851,6.851,0,0,0,.427,2.3,4.106,4.106,0,0,0,2.355,2.354,6.842,6.842,0,0,0,2.3.427c1.308.059,1.7.072,5.012.072s3.705-.013,5.013-.072a6.842,6.842,0,0,0,2.3-.427,4.1,4.1,0,0,0,2.354-2.354,6.874,6.874,0,0,0,.428-2.3c.059-1.308.073-1.7.073-5.012s-.013-3.7-.073-5.013A6.872,6.872,0,0,0,232.439,141.835ZM222.77,155.52a6.369,6.369,0,1,1,6.369-6.369A6.369,6.369,0,0,1,222.77,155.52Zm6.621-11.5a1.488,1.488,0,1,1,1.489-1.488A1.489,1.489,0,0,1,229.391,144.018Z" transform="translate(-200.149 -126.528)" fill="#222221"/>
  <path id="Path_145" data-name="Path 145" d="M221.812,144.058a4.134,4.134,0,1,0,4.134,4.134A4.134,4.134,0,0,0,221.812,144.058Z" transform="translate(-199.191 -125.57)" fill="#222221"/>
  <path id="Path_146" data-name="Path 146" d="M224.747,128.505a22.622,22.622,0,0,0-22.621,22.622h0a22.622,22.622,0,0,0,45.244,0h0A22.623,22.623,0,0,0,224.747,128.505Zm12.329,27.736a9.114,9.114,0,0,1-.577,3.011,6.35,6.35,0,0,1-3.628,3.628,9.138,9.138,0,0,1-3.011.577c-1.323.059-1.745.074-5.114.074s-3.791-.014-5.114-.074a9.151,9.151,0,0,1-3.011-.577A6.343,6.343,0,0,1,213,159.252a9.082,9.082,0,0,1-.577-3.011c-.061-1.323-.075-1.745-.075-5.114s.014-3.791.075-5.114A9.082,9.082,0,0,1,213,143a6.343,6.343,0,0,1,3.627-3.628,9.119,9.119,0,0,1,3.011-.577c1.323-.061,1.746-.075,5.114-.075s3.791.014,5.114.075a9.106,9.106,0,0,1,3.011.577A6.349,6.349,0,0,1,236.5,143a9.114,9.114,0,0,1,.577,3.011c.061,1.323.075,1.745.075,5.114S237.137,154.918,237.077,156.241Z" transform="translate(-202.126 -128.505)" fill="#222221"/>
</svg>     