<svg xmlns="http://www.w3.org/2000/svg" width="45.244" height="45.244" viewBox="0 0 45.244 45.244">
  <path id="Path_142" data-name="Path 142" d="M113.91,128.505a22.623,22.623,0,0,0-22.622,22.622h0a22.622,22.622,0,0,0,45.244,0h0A22.622,22.622,0,0,0,113.91,128.505Zm-5.576,32.7h-4.682V146.085h4.682Zm-2.363-17.1a2.791,2.791,0,1,1,2.769-2.792A2.781,2.781,0,0,1,105.97,144.1Zm19.909,17.1h-4.66V153.27c0-2.177-.827-3.393-2.549-3.393-1.875,0-2.853,1.267-2.853,3.393v7.939h-4.491V146.085h4.491v2.037a5.272,5.272,0,0,1,4.558-2.5c3.207,0,5.5,1.959,5.5,6.01Z" transform="translate(-91.287 -128.505)" fill="#222221"/>
</svg>