<svg xmlns="http://www.w3.org/2000/svg" width="45.24" height="45.239" viewBox="0 0 45.24 45.239">
  <path id="Path_152" data-name="Path 152" d="M58.172,128.505a22.621,22.621,0,0,0-22.62,22.62h0a22.62,22.62,0,0,0,45.24,0h0A22.621,22.621,0,0,0,58.172,128.505Zm9.585,17.7a14.607,14.607,0,0,1-5.542,11.928,13.548,13.548,0,0,1-8.514,2.782A14,14,0,0,1,46.12,158.7a9.939,9.939,0,0,0,7.322-2.047,4.947,4.947,0,0,1-4.619-3.435,4.951,4.951,0,0,0,2.232-.083,4.952,4.952,0,0,1-3.966-4.912,4.944,4.944,0,0,0,2.24.619,4.951,4.951,0,0,1-1.53-6.6A14.034,14.034,0,0,0,57.991,147.4a4.949,4.949,0,0,1,8.427-4.511,9.921,9.921,0,0,0,3.139-1.2,4.951,4.951,0,0,1-2.174,2.736,9.863,9.863,0,0,0,2.84-.779A10.024,10.024,0,0,1,67.757,146.209Z" transform="translate(-35.552 -128.505)" fill="#222221"/>
</svg>  