<svg xmlns="http://www.w3.org/2000/svg" xmlns:xlink="http://www.w3.org/1999/xlink" width="14.845" height="14.845" viewBox="0 0 14.845 14.845">
  <defs>
    <clipPath id="clip-path">
      <rect id="Rectangle_148" data-name="Rectangle 148" width="14.845" height="14.845" fill="#a2a2a2"/>
    </clipPath>
    <clipPath id="clip-path-2">
      <rect id="Rectangle_149" data-name="Rectangle 149" width="14.836" height="14.845" fill="#a2a2a2"/>
    </clipPath>
  </defs>
  <g id="Group_840" data-name="Group 840" transform="translate(-171.117 -9.659)">
    <g id="Mask_Group_1" data-name="Mask Group 1" transform="translate(171.117 9.659)" clip-path="url(#clip-path)">
      <g id="Search" transform="translate(0.004)">
        <g id="Group_65" data-name="Group 65">
          <g id="Group_64" data-name="Group 64" clip-path="url(#clip-path-2)">
            <path id="Path_28" data-name="Path 28" d="M70.149,47.2l-3.213-3.213c-.017-.017-.037-.029-.055-.045a6.083,6.083,0,1,0-1.738,1.738c.016.018.028.038.045.055L68.4,48.952A1.236,1.236,0,0,0,70.149,47.2ZM61.8,44.578A3.973,3.973,0,1,1,65.774,40.6,3.972,3.972,0,0,1,61.8,44.578Zm0,0" transform="translate(-55.721 -34.525)" fill="#a2a2a2" fill-rule="evenodd"/>
          </g>
        </g>
      </g>
    </g>
  </g>
</svg>