<svg id="share" xmlns="http://www.w3.org/2000/svg" width="17.417" height="19" viewBox="0 0 17.417 19">
  <path id="Path_1374" data-name="Path 1374" d="M319.814,18.573A2.573,2.573,0,1,1,317.241,16,2.573,2.573,0,0,1,319.814,18.573Zm0,0" transform="translate(-302.991 -15.406)" fill="#77b827"/>
  <path id="Path_1375" data-name="Path 1375" d="M301.835,6.333A3.167,3.167,0,1,1,305,3.167,3.17,3.17,0,0,1,301.835,6.333Zm0-5.146a1.979,1.979,0,1,0,1.979,1.979A1.981,1.981,0,0,0,301.835,1.187Zm0,0" transform="translate(-287.585)" fill="#77b827"/>
  <path id="Path_1376" data-name="Path 1376" d="M319.814,359.905a2.573,2.573,0,1,1-2.573-2.573A2.573,2.573,0,0,1,319.814,359.905Zm0,0" transform="translate(-302.991 -344.072)" fill="#77b827"/>
  <path id="Path_1377" data-name="Path 1377" d="M301.835,347.665A3.167,3.167,0,1,1,305,344.5,3.17,3.17,0,0,1,301.835,347.665Zm0-5.146a1.979,1.979,0,1,0,1.979,1.979A1.981,1.981,0,0,0,301.835,342.52Zm0,0" transform="translate(-287.585 -328.665)" fill="#77b827"/>
  <path id="Path_1378" data-name="Path 1378" d="M21.146,189.241a2.573,2.573,0,1,1-2.573-2.573A2.573,2.573,0,0,1,21.146,189.241Zm0,0" transform="translate(-15.406 -179.741)" fill="#77b827"/>
  <path id="Path_1379" data-name="Path 1379" d="M3.167,177a3.167,3.167,0,1,1,3.167-3.167A3.17,3.17,0,0,1,3.167,177Zm0-5.146a1.979,1.979,0,1,0,1.979,1.979A1.981,1.981,0,0,0,3.167,171.855Zm0,0" transform="translate(0 -164.335)" fill="#77b827"/>
  <path id="Path_1380" data-name="Path 1380" d="M115.141,95.987a.792.792,0,0,1-.393-1.48l7.346-4.188a.792.792,0,1,1,.784,1.376l-7.346,4.188A.787.787,0,0,1,115.141,95.987Zm0,0" transform="translate(-110.105 -86.867)" fill="#77b827"/>
  <path id="Path_1381" data-name="Path 1381" d="M122.508,271.991a.787.787,0,0,1-.391-.1l-7.346-4.188a.792.792,0,0,1,.784-1.376l7.346,4.188a.792.792,0,0,1-.393,1.48Zm0,0" transform="translate(-110.127 -256.34)" fill="#77b827"/>
</svg>