<svg xmlns="http://www.w3.org/2000/svg" width="18.892" height="18.388" viewBox="0 0 18.892 18.388">
  <path id="Path_1080" data-name="Path 1080" d="M23.2,43.888H40.715a.7.7,0,0,0,.491-.206.679.679,0,0,0,.2-.495,9.511,9.511,0,0,0-6.777-8.874,4.81,4.81,0,1,0-5.337,0,9.514,9.514,0,0,0-6.777,8.874.687.687,0,0,0,.687.7Zm5.324-13.576a3.437,3.437,0,1,1,3.437,3.437A3.443,3.443,0,0,1,28.521,30.312ZM31.958,35.3a8.122,8.122,0,0,1,8.028,7.218H23.929A8.122,8.122,0,0,1,31.958,35.3Z" transform="translate(-22.51 -25.5)" fill="#009ee3"/>
</svg>