<svg xmlns="http://www.w3.org/2000/svg" width="137.39" height="112.556" viewBox="0 0 137.39 112.556">
  <g id="Group_1213" data-name="Group 1213" transform="translate(144.391 -25.385)">
    <path id="Path_1412" data-name="Path 1412" d="M-105.238,33.13c0-.731,0-2.7,2.7-2.7h30.7c2.7,0,2.7,1.94,2.7,2.7V44.465h5.037V33.13a7.329,7.329,0,0,0-6.9-7.733,7.333,7.333,0,0,0-.829,0h-30.728a7.33,7.33,0,0,0-7.733,6.9,7.334,7.334,0,0,0,0,.829V44.465h5.037Z" transform="translate(4.019)" fill="#77b827"/>
    <g id="Group_1212" data-name="Group 1212" transform="translate(-144.391 42.332)">
      <path id="Path_1413" data-name="Path 1413" d="M-48,85.294A7.116,7.116,0,0,1-40.9,78.187h1.457V63.9H-21.98V47.179a6.635,6.635,0,0,0-6.635-6.635H-137.756a6.635,6.635,0,0,0-6.635,6.635v77.39a6.636,6.636,0,0,0,6.635,6.635H-48Zm-15.835,8.069H-75.7V105.22a7.489,7.489,0,0,1-7.488,7.49,7.49,7.49,0,0,1-7.49-7.49V93.363H-102.53a7.488,7.488,0,0,1-7.487-7.4h.006c0-.03-.01-.059-.01-.089s.011-.072.012-.108h-.006a7.486,7.486,0,0,1,7.484-7.382h11.857V66.527a7.49,7.49,0,0,1,7.49-7.489A7.488,7.488,0,0,1-75.7,66.527V78.383h11.858a7.488,7.488,0,0,1,7.484,7.382h-.007c0,.037.011.072.011.108s-.008.059-.009.089h.006A7.488,7.488,0,0,1-63.838,93.363Z" transform="translate(144.391 -40.544)" fill="#77b827"/>
    </g>
    <path id="Path_1414" data-name="Path 1414" d="M-55.335,82.5v46.921a3.949,3.949,0,0,0,3.937,3.938H-21.44a3.949,3.949,0,0,0,3.937-3.938V82.5a3.949,3.949,0,0,0-3.937-3.938h-7.937V72.835h2.885V64.271H-46.771v8.564h2.97v5.723h-7.6A3.949,3.949,0,0,0-55.335,82.5Zm6.731,23.229c0-.013,0-.027,0-.04s0-.032.006-.049h0a3.4,3.4,0,0,1,3.4-3.353h5.386V96.9a3.4,3.4,0,0,1,3.4-3.4,3.4,3.4,0,0,1,3.4,3.4v5.386h5.386a3.4,3.4,0,0,1,3.4,3.353h0c0,.017,0,.032,0,.049s0,.027,0,.04h0a3.4,3.4,0,0,1-3.4,3.362h-5.386v5.386a3.4,3.4,0,0,1-3.4,3.4,3.4,3.4,0,0,1-3.4-3.4v-5.386h-5.386a3.4,3.4,0,0,1-3.4-3.362Z" transform="translate(10.501 4.585)" fill="#77b827"/>
  </g>
</svg>