<svg id="Laag_1" data-name="Laag 1" xmlns="http://www.w3.org/2000/svg" width="132.622" height="32.245" viewBox="0 0 132.622 32.245">
  <path id="Path_1172" data-name="Path 1172" d="M477.291,331.932a15.326,15.326,0,0,0-14.953-11.994c-.089,0-.175,0-.265.006V300.632c-13.32.059-24.763,7.487-30.02,18.162-1.061-2.639-2.307-5.74-3.787-9.419-6.564-16.337-32.164-6.417-32.164-6.417s.889,2.206,7.454,18.543c2.6,6.472,8.392,9.333,14.442,10.431Z" transform="translate(-396.102 -299.687)" fill="#e45d71"/>
  <path id="Path_1173" data-name="Path 1173" d="M462.567,309.283c-1.612,4.011-2.956,7.358-4.076,10.142-5.18-10.951-16.83-18.6-30.4-18.6l-.009.006v18.4a16.24,16.24,0,0,0-15.605,12.9h1.849a14.411,14.411,0,0,1,28.045,0H471.1c6.651-.9,13.32-3.6,16.184-10.72l7.45-18.54S469.131,292.942,462.567,309.283Z" transform="translate(-362.109 -299.881)" fill="#ff8b90"/>
  <path id="Path_1174" data-name="Path 1174" d="M427.213,306.21a3.682,3.682,0,1,0,3.682,3.682A3.682,3.682,0,0,0,427.213,306.21Z" transform="translate(-339.155 -286.74)" fill="#e45d71"/>
  <path id="Path_1175" data-name="Path 1175" d="M413.028,306.21a3.682,3.682,0,1,0,3.682,3.682A3.685,3.685,0,0,0,413.028,306.21Z" transform="translate(-368.612 -286.74)" fill="#ff8b90"/>
  <path id="Path_1176" data-name="Path 1176" d="M419.42,312.464a2.366,2.366,0,0,0,.065-.538,2.575,2.575,0,0,0-5.149,0,2.366,2.366,0,0,0,.065.538Z" transform="translate(-358.247 -280.219)" fill="#ff8b90"/>
  <path id="Path_1177" data-name="Path 1177" d="M424.347,312.464a2.368,2.368,0,0,0,.065-.538,2.576,2.576,0,0,0-5.153,0,2.205,2.205,0,0,0,.068.538Z" transform="translate(-348.025 -280.219)" fill="#ff8b90"/>
</svg>
