<svg xmlns="http://www.w3.org/2000/svg" width="118.368" height="121.317" viewBox="0 0 118.368 121.317">
  <path id="Path_1407" data-name="Path 1407" d="M90.361,85.285a6.078,6.078,0,1,1-6.079-6.076,6.08,6.08,0,0,1,6.079,6.076Zm24.669-6.076a6.078,6.078,0,1,0,6.079,6.076,6.075,6.075,0,0,0-6.079-6.076Zm25.961,24.74v-.693a54.046,54.046,0,0,1-2.433,5.81,35.979,35.979,0,0,0,.993,4.568c2.5,3.862,9.548,8.786,14.38,10.053a16.512,16.512,0,0,1-8.8,1.094,26.249,26.249,0,0,0,12.3,8.616c-13,11.714-34.415,11.975-49.384,2.877a27.745,27.745,0,0,1-16.787,0c-14.969,9.1-36.385,8.837-49.384-2.877a26.244,26.244,0,0,0,12.458-8.829,16.647,16.647,0,0,1-7.057-1.254c3.542-.929,8.27-3.822,11.533-6.82a36.253,36.253,0,0,0,1.94-7.427,54.048,54.048,0,0,1-2.433-5.81v.693H50.972a10.5,10.5,0,0,1-10.5-10.5V81.9a10.5,10.5,0,0,1,5.505-9.238c.109-16.4,4.888-29.2,14.225-38.058,9.261-8.783,22.536-13.235,39.455-13.235S129.849,25.818,139.11,34.6c9.337,8.854,14.116,21.66,14.225,38.058A10.5,10.5,0,0,1,158.84,81.9V93.449a10.5,10.5,0,0,1-10.5,10.5Zm-4.373-18.625c0-2.7-.14-5.238-.343-7.7-4.738-4.335-13.4-7.6-24.334-8.755a13.178,13.178,0,0,1,4.02,6.587c-6.353-4.644-19.672-6.084-24.1-11.061h0c-7.039-4.662-8.887-11.335-8.948-8.573-.284,13.25-9.677,23.58-20.106,25.04-.066,1.458-.119,2.928-.119,4.461a47.562,47.562,0,0,0,2.468,15.307c5.861,7.067,15.535,9.063,24.1,9.593,1.59-2.529,5.157-4.3,9.309-4.3,5.632,0,10.2,3.24,10.2,7.239S104.2,120.4,98.57,120.4c-4.329,0-8.022-1.92-9.5-4.624-5.985-.348-12.564-1.369-18.427-4.139,8.245,12.155,21.03,18.582,29.014,18.582,12.544,0,36.961-15.848,36.961-44.9ZM142.974,71.4h4.04c-.668-28.615-17-43.734-47.357-43.734S52.965,42.783,52.3,71.4h4.04c1.478-9.644,4.6-17.577,9.339-23.676C73.228,38,84.663,33.076,99.657,33.076S126.083,38,133.635,47.722c4.741,6.1,7.864,14.032,9.339,23.676Zm0,0" transform="translate(-40.472 -21.367)" fill="#77b827"/>
</svg>