<svg xmlns="http://www.w3.org/2000/svg" width="138.841" height="121.036" viewBox="0 0 138.841 121.036">
  <g id="Group_1211" data-name="Group 1211" transform="translate(14.079 -34.463)">
    <path id="Path_1408" data-name="Path 1408" d="M86.972,89.349a40.952,40.952,0,0,0-4.251,7.786,7.445,7.445,0,0,1-13.8-.018,40.651,40.651,0,0,0-4.334-7.9A34.254,34.254,0,0,1,50.33,79.626a8.391,8.391,0,0,0-1.666,8.592c1.306,3.06,10.464,2.481,9.68,9.065-.653,5.391,6.4,6.807,8.9,6.546,2.5-.3,6.341,4.1,4.4,6.044-1.921,1.941-5.557,2.015-5,7.014.151,1.455,4.553,1.268,4.553,3.468,0,2.22-2.276,4.738-.522,7.293a5.873,5.873,0,0,0,1.175,1.324A47.228,47.228,0,0,1-1.992,72.31C-2.01,80.8,2.52,87.847,4.648,89.972c6.937,6.919,16.989,4.738,18.277,10.538,1.306,5.782-6.9,5.8-6.361,10.22.561,4.44,11.247,5.613,8.86,9.7-3.152,5.427,2.126,5.818.6,12.513-.82,3.657,4.456,4.366,6.415,1.585,1.493-2.126,1.193-4.735,4.2-7.926,3.675-3.916,12.2-4.551,11.247-11.022-1.623-10.743-12.069-12.423-16.62-14.94C26.1,97.806,27.363,91,26.244,87.754c-1.565-4.607-6.881,1.286-9.716-1.4-4.663-4.4.84-10.63,4.756-10.5,8.261.261,10.8,8.3,13.839,8.018,2.965-.259,4.886-4.4,5.409-6.6,1.1-4.792-1.864-2.648-3.058-5.147-1.153-2.4,2.249-4.713,5.3-6.742a34.261,34.261,0,0,1-1.1-8.475c0-.133.018-.263.02-.4-3.562-1.655-7.615-3.339-7.856-6.039-.187-2.164,3.952-3.209,8.671-3.4.2.009.4.034.6.047a34.064,34.064,0,0,1,2.65-6.447,52.444,52.444,0,0,0-5.915-.351A53.919,53.919,0,1,0,93.761,94.244a53.333,53.333,0,0,0-.579-7.728A33.9,33.9,0,0,1,86.972,89.349Z" transform="translate(0 7.337)" fill="#fff"/>
    <g id="Group_1210" data-name="Group 1210" transform="translate(46.386 34.463)">
      <g id="Group_1209" data-name="Group 1209">
        <path id="Path_1409" data-name="Path 1409" d="M13.192,68.934a29.541,29.541,0,0,0,45.16,19.882l21.274,16.577A7.137,7.137,0,1,0,88.4,94.135l-20.272-15.8a29.532,29.532,0,1,0-54.937-9.405Zm9.948-1.682A19.451,19.451,0,1,1,45.563,83.187,19.452,19.452,0,0,1,23.14,67.252Z" transform="translate(-12.774 -34.463)" fill="#fff"/>
        <g id="Group_1208" data-name="Group 1208" transform="translate(20.172 15.633)">
          <path id="Path_1410" data-name="Path 1410" d="M25.171,52a3.23,3.23,0,0,0-.986,2.367,3.14,3.14,0,0,0,1.047,2.481,3.45,3.45,0,0,0,2.324.858,3.341,3.341,0,0,0,2.29-.878,3.149,3.149,0,0,0,1.034-2.461,3.257,3.257,0,0,0-.966-2.358A3.427,3.427,0,0,0,25.171,52Z" transform="translate(-18.664 -29.336)" fill="#fff"/>
          <path id="Path_1411" data-name="Path 1411" d="M38.774,45.069a7.73,7.73,0,0,0-3.17-2.7,10.434,10.434,0,0,0-4.584-.966,10.155,10.155,0,0,0-4.9,1.155,8.646,8.646,0,0,0-3.247,2.959,6.81,6.81,0,0,0-1.135,3.625,2.854,2.854,0,0,0,.885,2.022,2.948,2.948,0,0,0,2.173.905,3,3,0,0,0,2.95-2.454,6.517,6.517,0,0,1,1.254-2.367,2.706,2.706,0,0,1,2.024-.633,2.709,2.709,0,0,1,1.927.671,2.02,2.02,0,0,1,.7,1.576,1.646,1.646,0,0,1-.212.824,3.729,3.729,0,0,1-.642.849q-.456.456-1.477,1.349c-.795.7-1.457,1.328-1.97,1.878a6.725,6.725,0,0,0-1.795,4.765,3.018,3.018,0,0,0,.849,2.283,2.853,2.853,0,0,0,2.047.806,2.668,2.668,0,0,0,2.808-2.394c.115-.522.2-.88.254-1.072a2.855,2.855,0,0,1,.2-.486,2.671,2.671,0,0,1,.378-.527,10.467,10.467,0,0,1,.824-.822q2.04-1.827,2.826-2.6A8.248,8.248,0,0,0,39.238,51.7a5.975,5.975,0,0,0,.673-2.862A6.739,6.739,0,0,0,38.774,45.069Z" transform="translate(-21.733 -41.406)" fill="#fff"/>
        </g>
      </g>
    </g>
  </g>
</svg>