<svg xmlns="http://www.w3.org/2000/svg" xmlns:xlink="http://www.w3.org/1999/xlink" width="250.034" height="67.834" viewBox="0 0 250.034 67.834">
  <defs>
    <linearGradient id="linear-gradient" x1="0.5" y1="1" x2="0.5" gradientUnits="objectBoundingBox">
      <stop offset="0" stop-color="#0094cb" stop-opacity="0.2"/>
      <stop offset="1" stop-color="#0094cb"/>
    </linearGradient>
  </defs>
  <g id="Group_52" data-name="Group 52" transform="translate(-183.99 -231.282)">
    <path id="Path_62" data-name="Path 62" d="M314.782,300.93l-6.221-12.084h-2.249V300.93h-8.389V270.822h8.389v11.521h2.368l6.182-11.521h9.514l-8.109,14.332,8.551,15.776Z" transform="translate(-53.551 -18.585)" fill="#009ee3"/>
    <path id="Path_63" data-name="Path 63" d="M392.988,305.486V281.12l6.142-.28.682,3.532h.121a7.04,7.04,0,0,1,6.3-3.855,8.281,8.281,0,0,1,2.77.4l-.442,7.306a10.2,10.2,0,0,0-2.851-.4c-2.971,0-4.977,1.928-4.977,5.42v12.244Z" transform="translate(-98.233 -23.141)" fill="#009ee3"/>
    <path id="Path_64" data-name="Path 64" d="M442.652,305.452V290.118c0-2.249-1-3.132-2.971-3.132a4.092,4.092,0,0,0-3.212,1.4v17.061h-7.707V281.046l5.539-.322,1.083,1.926a10.364,10.364,0,0,1,6.5-2.207c5.178,0,8.51,3.452,8.51,9.675v15.334Z" transform="translate(-115.048 -23.107)" fill="#009ee3"/>
    <path id="Path_65" data-name="Path 65" d="M477.377,299.15V280.122h-2.77v-5.54h2.729v-.963c0-3.492,2.69-6.583,8.671-6.583a16.126,16.126,0,0,1,4.175.563l-.442,4.816a9.248,9.248,0,0,0-2.087-.241c-1.926,0-2.569.6-2.569,1.606v.8H489.7v5.54h-4.617V299.15Z" transform="translate(-136.596 -16.805)" fill="#009ee3"/>
    <path id="Path_66" data-name="Path 66" d="M554.938,305.486V281.12l6.142-.28.682,3.532h.121a7.04,7.04,0,0,1,6.3-3.855,8.277,8.277,0,0,1,2.77.4l-.442,7.306a10.2,10.2,0,0,0-2.851-.4c-2.971,0-4.977,1.928-4.977,5.42v12.244Z" transform="translate(-174.353 -23.141)" fill="#009ee3"/>
    <path id="Path_67" data-name="Path 67" d="M617.484,305.452V290.118c0-2.088-1.042-3.092-2.849-3.092s-2.811.963-2.811,2.971v15.455h-7.748V290c0-2.127-.963-2.971-2.81-2.971a3.452,3.452,0,0,0-2.85,1.365v17.061H590.71V281.085l5.539-.321,1.2,2.087a9.389,9.389,0,0,1,6.142-2.408c2.93,0,4.976.963,6.342,3.051a8.475,8.475,0,0,1,6.864-3.051c4.937,0,8.389,3.211,8.389,9.513v15.5Z" transform="translate(-191.167 -23.107)" fill="#009ee3"/>
    <g id="Group_49" data-name="Group 49" transform="translate(303.801 290.363)">
      <path id="Path_68" data-name="Path 68" d="M415.307,350.054l-.034,1.431h-5.215v-8.449h1.566v7.018Z" transform="translate(-410.058 -342.89)" fill="#82bd00"/>
      <path id="Path_69" data-name="Path 69" d="M424.344,343.036h1.577v8.449h-1.577Z" transform="translate(-416.773 -342.89)" fill="#82bd00"/>
      <path id="Path_70" data-name="Path 70" d="M439.2,343.036l-2.929,8.449h-1.757l-2.929-8.449h1.712l1.87,6.083.248.868h.034l.247-.868,1.893-6.083Z" transform="translate(-420.175 -342.89)" fill="#82bd00"/>
      <path id="Path_71" data-name="Path 71" d="M455.73,350.1l-.033,1.386H450.12v-8.449h5.407l.023,1.408h-3.875v2.039h3.29v1.274h-3.29V350.1Z" transform="translate(-428.888 -342.89)" fill="#82bd00"/>
      <path id="Path_72" data-name="Path 72" d="M467.284,351.513a5.2,5.2,0,0,1-2.546-.631l.215-1.385a4.564,4.564,0,0,0,2.32.631c1.048,0,1.532-.417,1.532-1.15,0-1.588-4.021-.9-4.021-3.728,0-1.374.89-2.489,2.929-2.489a5.9,5.9,0,0,1,2.309.45l-.2,1.341a5.919,5.919,0,0,0-2.028-.383c-1.149,0-1.51.462-1.51,1,0,1.543,4.022.833,4.022,3.706C470.3,350.51,469.2,351.513,467.284,351.513Z" transform="translate(-435.759 -342.76)" fill="#82bd00"/>
      <path id="Path_73" data-name="Path 73" d="M482.56,344.478v7.007h-1.577v-7.007h-2.377l.034-1.442H484.9l.034,1.442Z" transform="translate(-442.277 -342.89)" fill="#82bd00"/>
      <path id="Path_74" data-name="Path 74" d="M497.628,351.523c-2.557,0-3.628-1.341-3.628-4.382s1.036-4.36,3.628-4.36,3.6,1.318,3.6,4.36C501.232,350.227,500.207,351.523,497.628,351.523Zm-.012-7.311c-1.442,0-1.983.6-1.983,2.929s.541,2.951,1.994,2.951,1.982-.63,1.982-2.951C499.61,344.8,499.091,344.212,497.616,344.212Z" transform="translate(-449.513 -342.77)" fill="#82bd00"/>
      <path id="Path_75" data-name="Path 75" d="M517.5,344.495a4.956,4.956,0,0,0-1.712-.3c-1.645,0-2.264.7-2.264,2.884,0,2.32.642,3.03,2.3,3.03a4.169,4.169,0,0,0,1.7-.36l.18,1.3a5.062,5.062,0,0,1-2.084.473c-2.534,0-3.728-1.409-3.728-4.45,0-2.861,1.182-4.3,3.819-4.3a5.566,5.566,0,0,1,1.96.371Z" transform="translate(-457.922 -342.76)" fill="#82bd00"/>
      <path id="Path_76" data-name="Path 76" d="M532.23,351.485l-2.378-3.706h-1.047v3.706h-1.554v-8.449h1.554v3.447h1.082l2.275-3.447h1.814l-2.7,4.01,2.85,4.439Z" transform="translate(-465.141 -342.89)" fill="#82bd00"/>
      <path id="Path_77" data-name="Path 77" d="M555.563,348.545h-1.375v2.94h-1.554v-8.449h2.929c2.219,0,3.131.879,3.131,2.794C558.694,347.587,557.793,348.545,555.563,348.545Zm0-4.179h-1.375v2.906h1.375c1.048,0,1.532-.293,1.532-1.453C557.095,344.714,556.655,344.365,555.563,344.365Z" transform="translate(-477.072 -342.89)" fill="#82bd00"/>
      <path id="Path_78" data-name="Path 78" d="M573.483,351.485v-3.628h-3.436v3.628h-1.554v-8.449h1.554v3.391h3.436v-3.391h1.554v8.449Z" transform="translate(-484.526 -342.89)" fill="#82bd00"/>
      <path id="Path_79" data-name="Path 79" d="M590.592,349.671h-3.38l-.563,1.814h-1.656L588,343.036h1.859l3.03,8.449h-1.746Zm-1.949-4.619-1.025,3.3h2.568l-1.014-3.3-.236-.879H588.9Z" transform="translate(-492.281 -342.89)" fill="#82bd00"/>
      <path id="Path_80" data-name="Path 80" d="M608.461,347.857l2.084,3.628H608.72l-1.667-3.323h-1.442v3.323h-1.554v-8.449h2.984c1.983,0,2.94.8,2.94,2.535A2.081,2.081,0,0,1,608.461,347.857Zm-1.408-3.492h-1.442v2.591h1.4c.958,0,1.363-.315,1.363-1.329C608.371,344.692,607.988,344.365,607.053,344.365Z" transform="translate(-501.242 -342.89)" fill="#82bd00"/>
      <path id="Path_81" data-name="Path 81" d="M622.2,343.036l2.163,5.385.327.845h.034l.315-.845,2.186-5.385h1.724v8.449h-1.419v-4.878l.022-.913-.034-.011-.327.856-1.983,4.945h-1.059l-1.972-4.945-.326-.856-.023.011.012.913v4.878h-1.374v-8.449Z" transform="translate(-508.956 -342.89)" fill="#82bd00"/>
      <path id="Path_82" data-name="Path 82" d="M646.236,349.671h-3.38l-.563,1.814h-1.656l3.008-8.449H645.5l3.03,8.449h-1.746Zm-1.949-4.619-1.024,3.3h2.568l-1.014-3.3-.236-.879h-.033Z" transform="translate(-518.435 -342.89)" fill="#82bd00"/>
    </g>
    <g id="Group_51" data-name="Group 51" transform="translate(270.869 257.375)">
      <g id="Group_50" data-name="Group 50" transform="translate(0 0)">
        <path id="Path_83" data-name="Path 83" d="M368.393,287.806c0,6.774-7.773,8.13-12.418,8.41.19,2.1,1.8,3.831,4.693,3.831a11.127,11.127,0,0,0,5.877-1.962l2.085,5.14a15.968,15.968,0,0,1-9.1,2.663c-8.342,0-11.611-4.952-11.611-12.054,0-6.775,4.076-13.317,12.179-13.317C365.075,280.517,368.393,282.9,368.393,287.806Zm-8.721-1.822c-2.37,0-3.934,2.289-4.076,5.513,2.559-.14,5.925-1.309,5.925-3.6A1.755,1.755,0,0,0,359.672,285.984Z" transform="translate(-347.919 -280.517)" fill="#009ee3"/>
      </g>
    </g>
    <path id="Path_84" data-name="Path 84" d="M527.323,300.4v-17.81a28.027,28.027,0,0,0-9.116-1.88c-8.553,0-12.735,5.545-12.735,13.815,0,5.875,1.833,11.655,9.022,11.655a6.682,6.682,0,0,0,6.062-2.96l.282.048.328,2.208h6.156Zm-7.8-2.49a2.694,2.694,0,0,1-2.865,2.678c-2.727,0-3.384-3.008-3.384-6.625,0-4.042,1.035-7.707,4.089-7.707a6.7,6.7,0,0,1,2.16.33Z" transform="translate(-151.104 -23.232)" fill="#009ee3"/>
    <path id="Path_85" data-name="Path 85" d="M243.638,272.7H236.7c0,.021.006.041.006.061a4.208,4.208,0,0,1-4.208,4.208h-6.661v6.661a4.208,4.208,0,1,1-8.416,0v-6.661H210.76a4.208,4.208,0,0,1-4.208-4.208c0-.021.006-.04.006-.061h-6.937c0,.021,0,.041,0,.061a22.012,22.012,0,0,0,44.024,0C243.642,272.74,243.639,272.72,243.638,272.7Z" transform="translate(-7.345 -19.467)" fill="#82bd00"/>
    <path id="Path_86" data-name="Path 86" d="M239.256,266.248a24.853,24.853,0,0,1-4.456,3.6,41.487,41.487,0,0,1-6.281,3.294,55.833,55.833,0,0,1-7.776,2.631l-.191.049-.191.049-.19.048-.191.047-.014,0-.014,0-.014,0-.01,0-.233.057-.229.055-.229.054-.229.053q-1.826.417-3.619.71t-3.516.462q-1.719.169-3.357.219c-1.084.034-2.137.029-3.151-.013l-.054,0-.054,0-.054,0-.053,0-.052,0-.052,0-.051,0-.052,0a31.149,31.149,0,0,1-5.71-.79,17.214,17.214,0,0,1-4.3-1.61,8.461,8.461,0,0,1-2.72-2.27,5.248,5.248,0,0,1-1.059-2.781c0-.04-.005-.08-.007-.12s0-.081-.005-.121,0-.082,0-.122,0-.081,0-.122a6.022,6.022,0,0,1,.156-1.245,7.371,7.371,0,0,1,.409-1.236,9.366,9.366,0,0,1,.6-1.147,21.963,21.963,0,0,1,.958-5.487c-.289.181-.588.359-.865.544a26.829,26.829,0,0,0-5.711,4.929,10.621,10.621,0,0,0-2.648,5.475,5.95,5.95,0,0,0,.636,3.488,8.058,8.058,0,0,0,2.753,2.9,16.791,16.791,0,0,0,4.827,2.1,32.567,32.567,0,0,0,6.723,1.052c1.3.077,2.664.1,4.078.059s2.9-.139,4.413-.3,3.079-.39,4.662-.68,3.195-.647,4.812-1.069a63.659,63.659,0,0,0,9.57-3.3,46.392,46.392,0,0,0,7.58-4.163,26.371,26.371,0,0,0,5.132-4.495,12.091,12.091,0,0,0,2.518-4.378A12.167,12.167,0,0,1,239.256,266.248Z" transform="translate(0 -13.734)" fill="#009ee3"/>
    <path id="Path_87" data-name="Path 87" d="M221.63,231.282a22.012,22.012,0,0,0-22.012,22.012c0,.016,0,.033,0,.05h6.937c0-.017-.005-.033-.005-.05a4.208,4.208,0,0,1,4.208-4.208h6.662v-6.661a4.208,4.208,0,1,1,8.416,0v6.661H232.5a4.208,4.208,0,0,1,4.208,4.208c0,.017,0,.033-.005.05h6.937c0-.017,0-.033,0-.05A22.012,22.012,0,0,0,221.63,231.282Z" transform="translate(-7.345 0)" fill="url(#linear-gradient)"/>
  </g>
</svg> 