<svg class="mr-2" xmlns="http://www.w3.org/2000/svg" width="21.082" height="19.764" viewBox="0 0 21.082 19.764">
  <g id="Group_842" data-name="Group 842" transform="translate(-215 -106.276)">
    <path id="Path_1076" data-name="Path 1076" d="M266.088,250.28h-2.471a.618.618,0,0,0-.618.618.611.611,0,0,0,.618.609h2.471a.611.611,0,0,0,.618-.609.618.618,0,0,0-.618-.618Zm0,0" transform="translate(-45.53 -136.592)" fill="#707070"/>
    <path id="Path_1077" data-name="Path 1077" d="M266.088,298.28h-2.471a.618.618,0,0,0-.618.618.611.611,0,0,0,.618.609h2.471a.611.611,0,0,0,.618-.609.618.618,0,0,0-.618-.618Zm0,0" transform="translate(-45.53 -182.122)" fill="#707070"/>
    <path id="Path_1078" data-name="Path 1078" d="M233.611,112.515v-4.386a1.853,1.853,0,0,0-3.682-.294l-2.824,2.039-.006,0a6.839,6.839,0,0,1-4.049,1.338h-4.962A3.092,3.092,0,0,0,215,114.305v2.471a3.092,3.092,0,0,0,3.088,3.088l.618-.008v4.332a1.853,1.853,0,1,0,3.706,0v-1.853h.618a1.855,1.855,0,0,0,1.853-1.853v-.357a6.82,6.82,0,0,1,2.223,1.1l.007,0,2.825,2.061a1.853,1.853,0,0,0,3.674-.337v-4.386a3.088,3.088,0,0,0,0-6.052Zm-12.435,11.673a.618.618,0,0,1-1.235,0v-4.332h1.235Zm-3.088-5.559a1.855,1.855,0,0,1-1.853-1.853v-2.471a1.862,1.862,0,0,1,1.853-1.861h4.323v6.185Zm5.559,1.853a.618.618,0,0,1-.618.618h-.618v-1.243a11.346,11.346,0,0,1,1.235.037Zm6.267,1.255-2.07-1.5a8.089,8.089,0,0,0-4.2-1.579V112.43a8.092,8.092,0,0,0,4.185-1.556l2.082-1.5Zm2.471,1.215a.625.625,0,0,1-.626.618.618.618,0,0,1-.618-.618V108.129a.618.618,0,0,1,.618-.618.625.625,0,0,1,.626.618Zm1.227-5.665v-3.493a1.852,1.852,0,0,1,0,3.493Zm0,0" transform="translate(0 0)" fill="#707070"/>
  </g>
</svg> 